<mxfile host="app.diagrams.net" modified="2023-05-28T07:36:49.992Z" agent="5.0 (X11)" etag="r2LqhPQV3cdWC8t6xmiz" version="20.8.16" type="github">
  <diagram name="Page-1" id="frTPDTftdDpLM2Nartdn">
    <mxGraphModel dx="1562" dy="763" grid="1" gridSize="10" guides="1" tooltips="1" connect="1" arrows="1" fold="1" page="1" pageScale="1" pageWidth="827" pageHeight="1169" math="0" shadow="0">
      <root>
        <mxCell id="0" />
        <mxCell id="1" parent="0" />
        <mxCell id="Fqsyen3plSOxSX8mm29R-5" value="" style="edgeStyle=orthogonalEdgeStyle;rounded=0;orthogonalLoop=1;jettySize=auto;html=1;fontFamily=Times New Roman;fontSize=18;" edge="1" parent="1" source="Fqsyen3plSOxSX8mm29R-1" target="Fqsyen3plSOxSX8mm29R-2">
          <mxGeometry relative="1" as="geometry" />
        </mxCell>
        <mxCell id="Fqsyen3plSOxSX8mm29R-1" value="&lt;font style=&quot;font-size: 24px;&quot; face=&quot;Times New Roman&quot;&gt;&lt;font&gt;Rotation Estimation&lt;/font&gt;&lt;br&gt;&lt;/font&gt;" style="shape=process;whiteSpace=wrap;html=1;backgroundOutline=1;" vertex="1" parent="1">
          <mxGeometry x="130" y="210" width="230" height="80" as="geometry" />
        </mxCell>
        <mxCell id="Fqsyen3plSOxSX8mm29R-2" value="&lt;font style=&quot;font-size: 24px;&quot; face=&quot;Times New Roman&quot;&gt;&lt;font&gt;&amp;nbsp;Estimation&lt;/font&gt;&lt;br&gt;&lt;/font&gt;" style="shape=process;whiteSpace=wrap;html=1;backgroundOutline=1;" vertex="1" parent="1">
          <mxGeometry x="440" y="210" width="230" height="80" as="geometry" />
        </mxCell>
        <mxCell id="Fqsyen3plSOxSX8mm29R-4" value="" style="edgeStyle=orthogonalEdgeStyle;rounded=0;orthogonalLoop=1;jettySize=auto;html=1;fontFamily=Times New Roman;fontSize=18;" edge="1" parent="1" target="Fqsyen3plSOxSX8mm29R-1">
          <mxGeometry relative="1" as="geometry">
            <mxPoint x="245" y="190" as="sourcePoint" />
          </mxGeometry>
        </mxCell>
        <mxCell id="Fqsyen3plSOxSX8mm29R-7" value="&lt;div&gt;Depth&lt;/div&gt;&lt;div&gt;Image&lt;/div&gt;" style="ellipse;whiteSpace=wrap;html=1;aspect=fixed;fontFamily=Times New Roman;fontSize=18;" vertex="1" parent="1">
          <mxGeometry x="205" y="110" width="80" height="80" as="geometry" />
        </mxCell>
        <mxCell id="Fqsyen3plSOxSX8mm29R-9" value="" style="edgeStyle=orthogonalEdgeStyle;rounded=0;orthogonalLoop=1;jettySize=auto;html=1;fontFamily=Times New Roman;fontSize=18;" edge="1" parent="1" source="Fqsyen3plSOxSX8mm29R-8" target="Fqsyen3plSOxSX8mm29R-2">
          <mxGeometry relative="1" as="geometry" />
        </mxCell>
        <mxCell id="Fqsyen3plSOxSX8mm29R-8" value="Color PointCloud" style="ellipse;whiteSpace=wrap;html=1;aspect=fixed;fontFamily=Times New Roman;fontSize=18;" vertex="1" parent="1">
          <mxGeometry x="502.5" y="80" width="105" height="105" as="geometry" />
        </mxCell>
      </root>
    </mxGraphModel>
  </diagram>
</mxfile>
